<svg width="33" height="32" viewBox="0 0 33 32" fill="none" xmlns="http://www.w3.org/2000/svg">
<path fill-rule="evenodd" clip-rule="evenodd" d="M9 13C9 12.4477 9.44772 12 10 12H23C23.5523 12 24 12.4477 24 13C24 13.5523 23.5523 14 23 14H10C9.44772 14 9 13.5523 9 13Z" fill="white"/>
<path fill-rule="evenodd" clip-rule="evenodd" d="M9 17C9 16.4477 9.44772 16 10 16H23C23.5523 16 24 16.4477 24 17C24 17.5523 23.5523 18 23 18H10C9.44772 18 9 17.5523 9 17Z" fill="white"/>
<path fill-rule="evenodd" clip-rule="evenodd" d="M4.08579 5.58579C4.46086 5.21071 4.96957 5 5.5 5H27.5C28.0304 5 28.5391 5.21071 28.9142 5.58579C29.2893 5.96086 29.5 6.46957 29.5 7V26C29.5 26.3466 29.3205 26.6684 29.0257 26.8507C28.7309 27.0329 28.3628 27.0494 28.0528 26.8944L24.5 25.118L20.9472 26.8944C20.6657 27.0352 20.3343 27.0352 20.0528 26.8944L16.5 25.118L12.9472 26.8944C12.6657 27.0352 12.3343 27.0352 12.0528 26.8944L8.5 25.118L4.94721 26.8944C4.63723 27.0494 4.26909 27.0329 3.97427 26.8507C3.67945 26.6684 3.5 26.3466 3.5 26V7C3.5 6.46957 3.71071 5.96086 4.08579 5.58579ZM27.5 7L5.5 7L5.5 24.382L8.05279 23.1056C8.33431 22.9648 8.66569 22.9648 8.94721 23.1056L12.5 24.882L16.0528 23.1056C16.3343 22.9648 16.6657 22.9648 16.9472 23.1056L20.5 24.882L24.0528 23.1056C24.3343 22.9648 24.6657 22.9648 24.9472 23.1056L27.5 24.382V7Z" fill="white"/>
</svg>
